<?xml version="1.0" encoding="utf-8"?>
<!-- Generator: Adobe Illustrator 23.0.0, SVG Export Plug-In . SVG Version: 6.00 Build 0)  -->
<svg version="1.1" id="Layer_1" xmlns="http://www.w3.org/2000/svg" xmlns:xlink="http://www.w3.org/1999/xlink" x="0px" y="0px"
	 viewBox="0 0 1080 1080" style="enable-background:new 0 0 1080 1080;" xml:space="preserve">
<style type="text/css">
	.st0{fill:#FFFFFF;}
</style>
<g>
	<path d="M442.8,442l30.89,53.5l0.87,1.5l0.87-1.5l30.1-52.14L535.35,495l-61.2,106l-91.8-159H442.8 M443.38,441h-62.76l93.53,162
		l62.35-108l-30.97-53.64L474.56,495L443.38,441L443.38,441z"/>
</g>
<g>
	<path d="M630.98,442l-91.8,159l-30.03-52l61.77-107H630.98 M632.71,441h-62.36L508,549l31.18,54L632.71,441L632.71,441z"/>
</g>
<g>
	<polygon class="st0" points="411.8,584 411.38,584 411.59,583.64 	"/>
	<polygon points="411.59,583.64 411.38,584 411.8,584 411.59,583.64 	"/>
</g>
</svg>
